<svg width="126" height="126" viewBox="0 0 126 126" fill="none" xmlns="http://www.w3.org/2000/svg">
<g clip-path="url(#clip0)">
<path d="M39.9434 23.1201H86.1203V39.9117H39.9434V23.1201Z" fill="white"/>
<path d="M39.9004 54.5996H86.0773V71.3912H39.9004V54.5996Z" fill="white"/>
<path d="M39.9434 86.0898H86.1203V102.881H39.9434V86.0898Z" fill="white"/>
<path d="M6.35938 6.32812H10.5573V10.526H6.35938V6.32812Z" fill="#0057E0"/>
<path d="M10.5563 23.1202V16.5251C14.6496 15.4685 17.3184 11.5319 16.7855 7.33813C16.2536 3.1433 12.685 0 8.45733 0C4.22868 0 0.661077 3.1433 0.12814 7.33813C-0.404797 11.5319 2.26399 15.4685 6.35838 16.5251V23.1202C6.36453 28.9129 11.0595 33.6078 16.8531 33.615H33.6447V29.4171H16.8531C13.3747 29.4171 10.5563 26.5977 10.5563 23.1202ZM4.25942 8.42758C4.25942 6.1093 6.13905 4.22967 8.45733 4.22967C10.7756 4.22967 12.6552 6.1093 12.6552 8.42758C12.6552 10.7459 10.7756 12.6255 8.45733 12.6255C6.13905 12.6255 4.25942 10.7459 4.25942 8.42758Z" fill="#0057E0"/>
<path d="M115.504 6.32812H119.702V10.526H115.504V6.32812Z" fill="#0057E0"/>
<path d="M119.702 23.1202V16.5251C123.796 15.4685 126.465 11.5319 125.932 7.33813C125.4 3.1433 121.831 0 117.603 0C113.375 0 109.807 3.1433 109.274 7.33813C108.741 11.5319 111.41 15.4685 115.504 16.5251V23.1202C115.504 26.5977 112.685 29.4171 109.208 29.4171H92.416V33.615H109.208C115 33.6078 119.695 28.9129 119.702 23.1202ZM113.406 8.42758C113.406 6.1093 115.285 4.22967 117.603 4.22967C119.922 4.22967 121.801 6.1093 121.801 8.42758C121.801 10.7459 119.922 12.6255 117.603 12.6255C115.285 12.6255 113.406 10.7459 113.406 8.42758Z" fill="#0057E0"/>
<path d="M86.1197 21.0205H39.9427C38.7836 21.0205 37.8438 21.9603 37.8438 23.1195V39.9111C37.8438 41.0702 38.7836 42.01 39.9427 42.01H86.1197C87.2788 42.01 88.2186 41.0702 88.2186 39.9111V23.1195C88.2186 21.9603 87.2788 21.0205 86.1197 21.0205ZM84.0207 37.8121H42.0417V25.2184H84.0207V37.8121Z" fill="#0057E0"/>
<path d="M86.1197 52.5049H39.9427C38.7836 52.5049 37.8438 53.4447 37.8438 54.6038V71.3954C37.8438 72.5546 38.7836 73.4944 39.9427 73.4944H86.1197C87.2788 73.4944 88.2186 72.5546 88.2186 71.3954V54.6038C88.2186 53.4447 87.2788 52.5049 86.1197 52.5049ZM84.0207 69.2965H42.0417V56.7028H84.0207V69.2965Z" fill="#0057E0"/>
<path d="M6.35938 115.474H10.5573V119.671H6.35938V115.474Z" fill="#0057E0"/>
<path d="M6.35935 102.881V109.476C2.26496 110.532 -0.40382 114.468 0.129116 118.663C0.662053 122.856 4.22965 126 8.4583 126C12.6859 126 16.2546 122.856 16.7865 118.663C17.3194 114.468 14.6506 110.532 10.5573 109.476V102.881C10.5573 99.4021 13.3757 96.5836 16.8541 96.5836H33.6457V92.3857H16.8541C11.0605 92.3919 6.3655 97.0869 6.35935 102.881ZM12.6562 117.573C12.6562 119.891 10.7766 121.771 8.4583 121.771C6.14003 121.771 4.2604 119.891 4.2604 117.573C4.2604 115.255 6.14003 113.375 8.4583 113.375C10.7766 113.375 12.6562 115.255 12.6562 117.573Z" fill="#0057E0"/>
<path d="M119.702 109.476V102.881C119.695 97.0869 115 92.3919 109.208 92.3857H92.416V96.5836H109.208C112.685 96.5836 115.504 99.4021 115.504 102.881V109.476C111.41 110.532 108.741 114.468 109.274 118.663C109.807 122.856 113.375 126 117.603 126C121.831 126 125.4 122.856 125.932 118.663C126.465 114.468 123.796 110.532 119.702 109.476ZM117.603 121.771C115.285 121.771 113.406 119.891 113.406 117.573C113.406 115.255 115.285 113.375 117.603 113.375C119.922 113.375 121.801 115.255 121.801 117.573C121.801 119.891 119.922 121.771 117.603 121.771Z" fill="#0057E0"/>
<path d="M115.504 115.474H119.702V119.671H115.504V115.474Z" fill="#0057E0"/>
<path d="M86.1197 83.9902H39.9427C38.7836 83.9902 37.8438 84.93 37.8438 86.0892V102.881C37.8438 104.04 38.7836 104.98 39.9427 104.98H86.1197C87.2788 104.98 88.2186 104.04 88.2186 102.881V86.0892C88.2186 84.93 87.2788 83.9902 86.1197 83.9902ZM84.0207 100.782H42.0417V88.1881H84.0207V100.782Z" fill="#0057E0"/>
<path d="M60.9326 29.416H65.1305V33.6139H60.9326V29.416Z" fill="#0057E0"/>
<path d="M6.35938 60.9023H10.5573V65.1002H6.35938V60.9023Z" fill="#0057E0"/>
<path d="M14.7549 60.9023H18.9528V65.1002H14.7549V60.9023Z" fill="#0057E0"/>
<path d="M69.3281 29.416H73.526V33.6139H69.3281V29.416Z" fill="#0057E0"/>
<path d="M52.5371 29.416H56.735V33.6139H52.5371V29.416Z" fill="#0057E0"/>
<path d="M60.8887 60.8984H65.0866V65.0963H60.8887V60.8984Z" fill="#0057E0"/>
<path d="M69.2852 60.8984H73.4831V65.0963H69.2852V60.8984Z" fill="#0057E0"/>
<path d="M52.4932 60.8984H56.6911V65.0963H52.4932V60.8984Z" fill="#0057E0"/>
<path d="M60.9326 92.3857H65.1305V96.5836H60.9326V92.3857Z" fill="#0057E0"/>
<path d="M69.3281 92.3857H73.526V96.5836H69.3281V92.3857Z" fill="#0057E0"/>
<path d="M52.5371 92.3857H56.735V96.5836H52.5371V92.3857Z" fill="#0057E0"/>
<path d="M25.2509 54.6038C25.2509 53.4447 24.3111 52.5049 23.1519 52.5049H2.16243C1.00329 52.5049 0.0634766 53.4447 0.0634766 54.6038V71.3954C0.0634766 72.5546 1.00329 73.4944 2.16243 73.4944H23.1519C24.3111 73.4944 25.2509 72.5546 25.2509 71.3954V65.0986H33.6467V60.9007H25.2509V54.6038ZM21.053 69.2965H4.26138V56.7028H21.053V69.2965Z" fill="#0057E0"/>
<path d="M115.504 60.9023H119.702V65.1002H115.504V60.9023Z" fill="#0057E0"/>
<path d="M107.108 60.9023H111.306V65.1002H107.108V60.9023Z" fill="#0057E0"/>
<path d="M123.9 52.5049H102.911C101.752 52.5049 100.812 53.4447 100.812 54.6038V60.9007H92.416V65.0986H100.812V71.3954C100.812 72.5546 101.752 73.4944 102.911 73.4944H123.9C125.059 73.4944 125.999 72.5546 125.999 71.3954V54.6038C125.999 53.4447 125.059 52.5049 123.9 52.5049ZM121.801 69.2965H105.01V56.7028H121.801V69.2965Z" fill="#0057E0"/>
</g>
<defs>
<clipPath id="clip0">
<rect width="126" height="126" fill="white"/>
</clipPath>
</defs>
</svg>
